<svg width="90" height="90" viewBox="0 0 90 90" xmlns="http://www.w3.org/2000/svg" xmlns:xlink="http://www.w3.org/1999/xlink"><title>B6551EA3-91EC-4035-A497-4F347BE58984</title><defs><circle id="a" cx="45" cy="45" r="45"/></defs><g fill="none" fill-rule="evenodd"><mask id="b" fill="#fff"><use xlink:href="#a"/></mask><use fill="#EBF0F9" xlink:href="#a"/><path fill="#94AFDF" mask="url(#b)" d="M-14.694 63.827H89.082v43.622H-14.694z"/><path d="M45.153 73.474c-2.46 0-19.439-27.262-19.439-37.822 0-10.56 8.703-19.121 19.44-19.121 10.735 0 19.438 8.56 19.438 19.121 0 10.56-16.98 37.822-19.439 37.822z" fill="#2F5FB3" mask="url(#b)"/><path d="M60.862 35.684c0 8.55-7.046 15.48-15.737 15.48-8.692 0-15.737-6.93-15.737-15.48s7.045-15.48 15.737-15.48c8.691 0 15.737 6.93 15.737 15.48" fill="#4490C0" mask="url(#b)"/><path fill="#E11021" mask="url(#b)" d="M39.4 28.47h3.105l-1.318 12.86h-3.075zM43.837 29.664l1.669 3.796 2.255-4.99h2.548l1.698 12.86h-3.31l-.702-5.328-2.46 5.328-2.372-5.267z"/></g></svg>