<svg width="41" height="40" viewBox="0 0 41 40" xmlns="http://www.w3.org/2000/svg" xmlns:xlink="http://www.w3.org/1999/xlink"><title>1545031A-A0C2-4373-AF89-63D7BC15F065</title><defs><circle id="a" cx="20" cy="20" r="20"/></defs><g transform="translate(.5 .001)" fill="none" fill-rule="evenodd"><mask id="b" fill="#fff"><use xlink:href="#a"/></mask><use fill="#EBF0F9" xlink:href="#a"/><path fill="#94AFDF" mask="url(#b)" d="M-6.531 28.367h46.122v19.388H-6.531z"/><path d="M20.068 32.655c-1.093 0-8.64-12.116-8.64-16.81 0-4.693 3.869-8.498 8.64-8.498 4.772 0 8.64 3.805 8.64 8.498 0 4.694-7.547 16.81-8.64 16.81z" fill="#2F5FB3" mask="url(#b)"/><path d="M27.05 15.86c0 3.8-3.132 6.88-6.995 6.88-3.862 0-6.994-3.08-6.994-6.88s3.132-6.88 6.994-6.88c3.863 0 6.995 3.08 6.995 6.88" fill="#4490C0" mask="url(#b)"/><path fill="#E11021" mask="url(#b)" d="M17.511 12.653h1.38l-.586 5.716H16.94zM19.483 13.184l.742 1.687 1.002-2.218h1.132l.755 5.716h-1.47L21.33 16l-1.093 2.368-1.054-2.341z"/></g></svg>