<svg width="90" height="90" viewBox="0 0 90 90" xmlns="http://www.w3.org/2000/svg" xmlns:xlink="http://www.w3.org/1999/xlink"><title>0B2AE436-CD78-4980-838B-9E0B63AAFA8C</title><defs><ellipse id="a" cx="45" cy="45" rx="45" ry="45"/></defs><g fill="none" fill-rule="evenodd"><mask id="b" fill="#fff"><use xlink:href="#a"/></mask><use fill="#EBF0F9" xlink:href="#a"/><ellipse fill="#678AC5" mask="url(#b)" cx="45.043" cy="68.189" rx="27.594" ry="6.785"/><ellipse fill="#EBF0F9" mask="url(#b)" cx="45.23" cy="68.189" rx="24.452" ry="6.013"/><path d="M45.574 72.508c9.7 0 17.564-1.934 17.564-4.32 0-2.385-7.864-4.318-17.564-4.318S28.01 65.803 28.01 68.189c0 2.385 7.864 4.319 17.564 4.319z" fill="#3A63A9" mask="url(#b)"/><ellipse fill="#EBF0F9" mask="url(#b)" cx="45.23" cy="68.189" rx="14.005" ry="3.444"/><ellipse fill="#1A3B74" mask="url(#b)" cx="45.23" cy="67.959" rx="9.413" ry="2.296"/><path d="M45.153 68.423c-2.46 0-19.439-27.262-19.439-37.822 0-10.56 8.703-19.121 19.44-19.121 10.735 0 19.438 8.56 19.438 19.121 0 10.56-16.98 37.822-19.439 37.822z" fill="#2F5FB3" mask="url(#b)"/><path d="M45.125 46.573c-8.692 0-15.737-6.931-15.737-15.48 0-8.55 7.045-15.48 15.737-15.48 8.691 0 15.737 6.93 15.737 15.48 0 8.549-7.046 15.48-15.737 15.48z" fill="#EBF0F9" mask="url(#b)"/><path fill="#E11021" mask="url(#b)" d="M39.4 23.878h3.105l-1.318 12.86h-3.075zM43.837 25.072l1.669 3.797 2.255-4.991h2.548l1.698 12.86h-3.31l-.702-5.328-2.46 5.328-2.372-5.267z"/></g></svg>