<svg width="12" height="25" viewBox="0 0 12 25" xmlns="http://www.w3.org/2000/svg"><title>21C28193-7FC5-4362-AE27-54B7A0F686D1</title><g fill="#1A3E7D" fill-rule="evenodd"><path d="M6 3.149c-.661 0-1.2.538-1.2 1.2 0 .66.539 1.2 1.2 1.2.661 0 1.2-.54 1.2-1.2 0-.662-.539-1.2-1.2-1.2m0 4.8a3.604 3.604 0 0 1-3.6-3.6c0-1.985 1.615-3.6 3.6-3.6s3.6 1.615 3.6 3.6c0 1.984-1.615 3.6-3.6 3.6M4.8 22.349h2.4v-4.8a1.2 1.2 0 0 1 1.2-1.2h1.2v-2.4c0-1.985-1.615-3.6-3.6-3.6a3.604 3.604 0 0 0-3.6 3.6v2.4h1.2a1.2 1.2 0 0 1 1.2 1.2v4.8zm3.6 2.4H3.6a1.2 1.2 0 0 1-1.2-1.2v-4.8H1.2a1.2 1.2 0 0 1-1.2-1.2v-3.6c0-3.309 2.692-6 6-6s6 2.691 6 6v3.6a1.2 1.2 0 0 1-1.2 1.2H9.6v4.8a1.2 1.2 0 0 1-1.2 1.2z"/></g></svg>