<svg width="23" height="26" viewBox="0 0 23 26" xmlns="http://www.w3.org/2000/svg"><title>204A6CAB-0F16-4FA2-98D3-AD8C669A8D7A</title><g fill="#979797" fill-rule="evenodd"><path d="M21.227 20.83H2.107a.994.994 0 0 1-.991-.992V6.613c0-2.873 2.378-5.25 5.25-5.25h10.6c2.874 0 5.251 2.377 5.251 5.25v13.225c0 .545-.445.991-.99.991zm-18.18-1.982h17.238V6.613a3.319 3.319 0 0 0-3.318-3.319h-10.6a3.319 3.319 0 0 0-3.32 3.319v12.235z" stroke="#979797"/><path d="M11.978 14.94c-5.111 0-8.934-1.333-9.2-1.422-.445-.178-.711-.667-.534-1.111.178-.445.667-.711 1.112-.533.088.044 8.4 2.888 16.622 0 .444-.178.933.088 1.11.533.179.444-.088.933-.532 1.111-2.978 1.067-5.956 1.422-8.578 1.422z"/><path d="M21.222 25.03a.877.877 0 0 1-.622-.268l-3.289-3.2H5.978l-3.29 3.2c-.355.356-.888.312-1.244 0-.355-.355-.31-.888 0-1.244L5 20.096a.877.877 0 0 1 .622-.267h12.045c.222 0 .444.089.622.267l3.555 3.422a.86.86 0 0 1 0 1.244c-.133.178-.355.267-.622.267z" stroke="#979797"/><path d="M6.511 17.207h-.533a.892.892 0 0 1-.89-.889c0-.489.4-.889.89-.889h.533c.489 0 .889.4.889.889s-.4.889-.889.889zM17.4 17.207h-.533a.892.892 0 0 1-.89-.889c0-.489.4-.889.89-.889h.533c.489 0 .889.4.889.889s-.445.889-.889.889z"/></g></svg>