<svg width="33" height="24" viewBox="0 0 33 24" xmlns="http://www.w3.org/2000/svg"><title>34834B18-F71A-4A2A-958E-41CC84A3F059</title><path d="M29.398 17.6h-.294c-.664-1.86-2.423-3.2-4.506-3.2s-3.842 1.34-4.504 3.2h-5.39c-.664-1.86-2.423-3.2-4.506-3.2s-3.842 1.34-4.504 3.2H3.798V16c0-1.765 1.435-3.2 3.2-3.2H29.27c.075.525.128 1.056.128 1.6v3.2zm-4.8 3.2c-.882 0-1.6-.718-1.6-1.6 0-.882.718-1.6 1.6-1.6.882 0 1.6.718 1.6 1.6 0 .882-.718 1.6-1.6 1.6zm-14.4 0c-.882 0-1.6-.718-1.6-1.6 0-.882.718-1.6 1.6-1.6.882 0 1.6.718 1.6 1.6 0 .882-.718 1.6-1.6 1.6zm6.4-17.438V9.6H10.36a8.025 8.025 0 0 1 6.238-6.238zM28.302 9.6h-8.504V3.328A11.214 11.214 0 0 1 28.302 9.6zM18.198 0C12.564 0 7.89 4.18 7.112 9.6h-.114c-3.53 0-6.4 2.87-6.4 6.4v3.2a1.6 1.6 0 0 0 1.6 1.6h3.496c.662 1.86 2.42 3.2 4.504 3.2 2.083 0 3.842-1.34 4.506-3.2h5.39c.662 1.86 2.42 3.2 4.504 3.2 2.083 0 3.842-1.34 4.506-3.2h1.894a1.6 1.6 0 0 0 1.6-1.6v-4.8c0-7.94-6.46-14.4-14.4-14.4z" fill="#979797" fill-rule="evenodd"/></svg>