<svg width="30" height="24" viewBox="0 0 30 24" xmlns="http://www.w3.org/2000/svg"><title>513774F2-0DB1-47BE-B4F9-6F803CD20982</title><path d="M24.362 21.136a2.822 2.822 0 0 1-2.818-2.818c0-.872.405-1.643 1.03-2.16l.398 2.393a1.41 1.41 0 0 0 2.78-.465l-.4-2.397a2.815 2.815 0 0 1 1.828 2.63 2.822 2.822 0 0 1-2.818 2.817m-15.5-2.818a2.822 2.822 0 0 1-2.818 2.818 2.822 2.822 0 0 1-2.819-2.818A2.821 2.821 0 0 1 6.044 15.5c.466 0 .901.125 1.289.327l-2.046 1.302A1.41 1.41 0 0 0 6.8 19.507l2.05-1.304c.002.04.012.076.012.115m15.997-5.585l-1.651-9.915h3.427l-.792 2.373a1.41 1.41 0 0 0 2.674.89l1.41-4.227A1.409 1.409 0 0 0 28.588 0h-7.045a1.406 1.406 0 0 0-1.39 1.642l.919 5.513c-.096.034-.196.054-.286.11l-5.116 3.257c-.02-.03-.024-.065-.046-.095L13.09 7.045h1.41a1.41 1.41 0 0 0 0-2.818H7.452a1.41 1.41 0 0 0 0 2.818h2.113l3.737 4.983-3.428 2.181a5.599 5.599 0 0 0-3.831-1.527 5.642 5.642 0 0 0-5.637 5.636 5.642 5.642 0 0 0 5.637 5.637 5.642 5.642 0 0 0 5.636-5.637c0-.606-.121-1.178-.299-1.726l10.185-6.48.51 3.064c-1.97.88-3.35 2.85-3.35 5.142a5.642 5.642 0 0 0 5.636 5.637 5.642 5.642 0 0 0 5.636-5.637c0-2.938-2.267-5.329-5.139-5.585" fill="#979797" fill-rule="evenodd"/></svg>