<svg width="12" height="24" viewBox="0 0 12 24" xmlns="http://www.w3.org/2000/svg"><title>EF68D549-168D-4219-B069-6B2AFE50FC6C</title><g fill="#979797" fill-rule="evenodd"><path d="M6 2.4c-.661 0-1.2.539-1.2 1.2 0 .661.539 1.2 1.2 1.2.661 0 1.2-.539 1.2-1.2 0-.661-.539-1.2-1.2-1.2m0 4.8a3.604 3.604 0 0 1-3.6-3.6C2.4 1.615 4.015 0 6 0s3.6 1.615 3.6 3.6S7.985 7.2 6 7.2M4.8 21.6h2.4v-4.8a1.2 1.2 0 0 1 1.2-1.2h1.2v-2.4c0-1.985-1.615-3.6-3.6-3.6a3.604 3.604 0 0 0-3.6 3.6v2.4h1.2a1.2 1.2 0 0 1 1.2 1.2v4.8zM8.4 24H3.6a1.2 1.2 0 0 1-1.2-1.2V18H1.2A1.2 1.2 0 0 1 0 16.8v-3.6c0-3.308 2.692-6 6-6s6 2.692 6 6v3.6a1.2 1.2 0 0 1-1.2 1.2H9.6v4.8A1.2 1.2 0 0 1 8.4 24z"/></g></svg>