<svg xmlns="http://www.w3.org/2000/svg" width="85" height="35" viewBox="0 0 114 42"><defs><style>.a{fill:#ed1c24}.b{fill:#fff}</style></defs><title>logo</title><path class="a" d="M17.8 3.8l5.7 12.6L31.1.2h8.7L45.6 42H34.4l-2.3-17.1L23.5 42l-7.9-17.1 2.2-21.1zM4.6.2L0 42h10.6L15.2.2H4.6z"/><path class="b" d="M47.8.2h11.4v5.6h-5.8V8h4.3v5.6h-4.3v2.2h5.8v5.6H47.8V.2zM61.5.2h13.1l-.1 5.3h-3.7v15.9h-5.5V5.5h-3.8V.2zM91.2 7c0-4.5-3-6.8-7.2-6.8h-7.3v21.2h5.5v-8.8h.1l3.7 8.7h6.3l-4.1-9.2a6 6 0 0 0 3-5.1m-8.9 3.2V4.9c2.1 0 3.3.7 3.3 2.6s-1.3 2.6-3.3 2.6"/><path class="b" d="M103.3 0a10.8 10.8 0 1 0 10.6 10.8A10.7 10.7 0 0 0 103.3 0m0 16a5.2 5.2 0 0 1-5.1-5.2 5.2 5.2 0 0 1 5.1-5.2 5.2 5.2 0 0 1 0 10.5M63.4 34.4a3.6 3.6 0 0 0 1.5-3 3.8 3.8 0 0 0-4.1-4.1H51V42h9.7a5.5 5.5 0 0 0 3.5-1 3.6 3.6 0 0 0 1.2-2.9c0-1.8-.7-3.1-2-3.7m-10.2-4.7H61a1.7 1.7 0 0 1 1.3.5 1.8 1.8 0 0 1 .5 1.3 1.8 1.8 0 0 1-.5 1.3 1.8 1.8 0 0 1-1.3.5h-7.8v-3.6zm7.5 10h-7.5v-4H61c1.4 0 2.1.6 2.1 2s-.8 1.9-2.4 1.9M73 27.3L66.4 42h2.2l1.4-3.3h8.3l1.6 3.3h2.2l-6.6-14.7H73zm-1.7 9.1l3-6.8 3 6.8h-6zM94.1 42l-7.8-11.6V42H84V27.3h2.7L94.5 39V27.3h2.3V42h-2.7zM113.9 41.8l.1.2h-2.9l-5.8-7.6-2.7 3.1V42h-2.3V27.3h2.3v7.4l7.6-7.4h3.2l-6.4 5.6 6.9 8.9z"/></svg>